<?xml version="1.0" encoding="iso-8859-1"?>
<!-- Generator: Adobe Illustrator 19.0.0, SVG Export Plug-In . SVG Version: 6.00 Build 0)  -->
<svg version="1.1" id="Layer_1" xmlns="http://www.w3.org/2000/svg" xmlns:xlink="http://www.w3.org/1999/xlink" x="0px" y="0px"
	 viewBox="0 0 230.569 230.569" style="enable-background:new 0 0 230.569 230.569;" xml:space="preserve">
<g>
	<g>
		<g>
			<path d="M115.285,144.106c-20.434,0-37.056,16.622-37.056,37.056s16.622,37.056,37.056,37.056
				c20.434,0,37.056-16.622,37.056-37.056S135.718,144.106,115.285,144.106z M115.285,209.982c-15.89,0-28.821-12.931-28.821-28.821
				s12.931-28.821,28.821-28.821c15.89,0,28.821,12.931,28.821,28.821S131.175,209.982,115.285,209.982z"/>
			<path d="M115.285,135.87c13.623,0,24.704-11.081,24.704-24.704s-11.081-24.704-24.704-24.704
				c-13.623,0-24.704,11.081-24.704,24.704S101.662,135.87,115.285,135.87z M115.285,94.697c9.083,0,16.469,7.386,16.469,16.469
				s-7.386,16.469-16.469,16.469c-9.083,0-16.469-7.386-16.469-16.469S106.201,94.697,115.285,94.697z"/>
			<path d="M177.044,111.166c-13.623,0-24.704,11.081-24.704,24.704c0,13.623,11.081,24.704,24.704,24.704
				s24.704-11.081,24.704-24.704C201.748,122.249,190.667,111.166,177.044,111.166z M177.044,152.339
				c-9.083,0-16.469-7.386-16.469-16.469c0-9.083,7.386-16.469,16.469-16.469s16.469,7.386,16.469,16.469
				C193.513,144.953,186.127,152.339,177.044,152.339z"/>
			<path d="M53.525,111.166c-13.623,0-24.704,11.081-24.704,24.704c0,13.623,11.081,24.704,24.704,24.704
				c13.623,0,24.704-11.081,24.704-24.704C78.229,122.249,67.147,111.166,53.525,111.166z M53.525,152.339
				c-9.083,0-16.469-7.386-16.469-16.469c0-9.083,7.386-16.469,16.469-16.469s16.469,7.386,16.469,16.469
				C69.994,144.953,62.608,152.339,53.525,152.339z"/>
			<path d="M115.285,78.229c9.083,0,16.469-7.386,16.469-16.469s-7.386-16.469-16.469-16.469c-9.083,0-16.47,7.385-16.47,16.469
				S106.201,78.229,115.285,78.229z M115.285,53.525c4.539,0,8.235,3.695,8.235,8.235c0,4.54-3.695,8.235-8.235,8.235
				c-4.539,0-8.235-3.695-8.235-8.235C107.05,57.219,110.745,53.525,115.285,53.525z"/>
			<path d="M168.81,90.58c9.083,0,16.469-7.386,16.469-16.469s-7.386-16.469-16.469-16.469s-16.469,7.386-16.469,16.469
				S159.726,90.58,168.81,90.58z M168.81,65.877c4.539,0,8.235,3.695,8.235,8.235s-3.695,8.235-8.235,8.235
				c-4.539,0-8.235-3.695-8.235-8.235S164.27,65.877,168.81,65.877z"/>
			<path d="M61.76,90.58c9.083,0,16.469-7.386,16.469-16.469s-7.386-16.47-16.469-16.47s-16.47,7.386-16.47,16.469
				C45.29,83.193,52.676,90.58,61.76,90.58z M61.76,65.877c4.539,0,8.235,3.695,8.235,8.235s-3.695,8.235-8.235,8.235
				c-4.54,0-8.235-3.695-8.235-8.235S57.22,65.877,61.76,65.877z"/>
			<path d="M115.285,37.055c6.811,0,12.352-5.541,12.352-12.352c0-6.811-5.541-12.352-12.352-12.352
				c-6.811,0-12.352,5.541-12.352,12.352C102.933,31.515,108.473,37.055,115.285,37.055z M115.285,20.586
				c2.272,0,4.117,1.845,4.117,4.117c0,2.272-1.845,4.117-4.117,4.117c-2.272,0-4.117-1.845-4.117-4.117
				C111.168,22.432,113.013,20.586,115.285,20.586z"/>
			<path d="M37.056,53.525c6.811,0,12.352-5.541,12.352-12.352c0-6.811-5.541-12.352-12.352-12.352
				c-6.811,0-12.352,5.541-12.352,12.352C24.704,47.984,30.244,53.525,37.056,53.525z M37.056,37.055
				c2.272,0,4.117,1.845,4.117,4.117c0,2.272-1.845,4.117-4.117,4.117c-2.272,0-4.117-1.845-4.117-4.117
				C32.938,38.901,34.784,37.055,37.056,37.055z"/>
			<path d="M189.396,53.525c6.811,0,12.352-5.541,12.352-12.352c0-6.811-5.541-12.352-12.352-12.352
				c-6.811,0-12.352,5.541-12.352,12.352C177.044,47.984,182.585,53.525,189.396,53.525z M189.396,37.055
				c2.272,0,4.117,1.845,4.117,4.117c0,2.272-1.845,4.117-4.117,4.117c-2.272,0-4.117-1.845-4.117-4.117
				C185.279,38.901,187.124,37.055,189.396,37.055z"/>
			<path d="M214.1,86.463c-9.083,0-16.469,7.386-16.469,16.469S205.017,119.4,214.1,119.4c9.083,0,16.469-7.386,16.469-16.469
				S223.183,86.463,214.1,86.463z M214.1,111.166c-4.539,0-8.235-3.695-8.235-8.235c0-4.539,3.695-8.235,8.235-8.235
				c4.539,0,8.235,3.695,8.235,8.235C222.334,107.471,218.639,111.166,214.1,111.166z"/>
			<path d="M16.469,86.463C7.386,86.463,0,93.848,0,102.932s7.386,16.469,16.469,16.469s16.469-7.386,16.469-16.469
				S25.552,86.463,16.469,86.463z M16.469,111.166c-4.539,0-8.235-3.695-8.235-8.235c0-4.539,3.695-8.235,8.235-8.235
				s8.235,3.695,8.235,8.235C24.704,107.471,21.009,111.166,16.469,111.166z"/>
		</g>
	</g>
</g>
<g>
</g>
<g>
</g>
<g>
</g>
<g>
</g>
<g>
</g>
<g>
</g>
<g>
</g>
<g>
</g>
<g>
</g>
<g>
</g>
<g>
</g>
<g>
</g>
<g>
</g>
<g>
</g>
<g>
</g>
</svg>
